<?xml version="1.0" encoding="UTF-8"?>
<svg version="1.1" xmlns="http://www.w3.org/2000/svg" width="512" height="512">
<path d="M0 0 C0.97453125 0.54527344 1.9490625 1.09054688 2.953125 1.65234375 C19.04120529 11.27226311 32.45171085 25.44830964 44 40 C44.62132812 40.7425 45.24265625 41.485 45.8828125 42.25 C56.04253866 54.49268257 64.55013371 68.02507124 72.75 81.625 C73.39356445 82.68509277 74.03712891 83.74518555 74.70019531 84.83740234 C77.50242956 89.52155049 80.15839934 94.14187911 82.31640625 99.16015625 C85.8333315 107.71843483 85.8333315 107.71843483 92.984375 113.0859375 C96.81678914 114.44186841 100.73611769 115.38807032 104.68212891 116.35009766 C131.26586764 123.80384871 153.49983337 147.68044518 167.09765625 170.59375 C179.77884478 193.30010811 190.80502015 217.49101544 184.375 243.9375 C181.04530007 254.85798437 175.47192079 263.45435831 168 272 C167.46890625 272.61488281 166.9378125 273.22976563 166.390625 273.86328125 C158.52481836 282.33265226 147.42145955 289.15943136 137 294 C136.34 294 135.68 294 135 294 C135.19335938 294.68320312 135.38671875 295.36640625 135.5859375 296.0703125 C144.87281757 332.02249179 140.18666741 373.01137299 123 406 C123.85722656 406.72703125 124.71445312 407.4540625 125.59765625 408.203125 C135.00233049 416.39149986 143.85116211 425.64553899 145.30078125 438.7109375 C145.33763725 447.08953556 144.04457152 454.06269574 137.98906231 460.22660351 C126.63924029 470.34581116 113.12609885 468.8462328 98.82495117 468.76049805 C96.26626339 468.76699778 93.70758104 468.77606345 91.14891052 468.78749084 C84.94095783 468.80812346 78.73358697 468.80089813 72.52565189 468.77998998 C67.47502317 468.76364912 62.42451725 468.75952027 57.37386513 468.76395607 C56.65267721 468.76458675 55.93148928 468.76521742 55.18844718 468.76586721 C53.72293753 468.76721339 52.25742791 468.76859297 50.79191831 468.77000556 C37.07395941 468.78192078 23.35624734 468.75793426 9.63834462 468.72098748 C-2.10422816 468.69011748 -13.84651675 468.68771619 -25.58911133 468.70678711 C-39.25615199 468.72895823 -52.92303364 468.73498839 -66.59008235 468.71446449 C-68.05086082 468.71230178 -69.51163932 468.71015268 -70.97241783 468.70801735 C-71.69096419 468.70695098 -72.40951054 468.70588462 -73.14983103 468.70478594 C-78.18641713 468.69834664 -83.22292073 468.70304923 -88.2595005 468.71204185 C-95.05511065 468.72375087 -101.85016482 468.70832936 -108.64572716 468.67529869 C-111.13082439 468.66713297 -113.61596628 468.66732622 -116.10105896 468.67677689 C-139.90197411 468.75730638 -159.11559689 463.95605241 -177 447 C-187.42975983 436.33281475 -194.46780585 422.71183876 -197 408 C-197.18175781 407.00097656 -197.36351562 406.00195312 -197.55078125 404.97265625 C-200.25827255 381.02901579 -198.04717886 355.74277801 -190 333 C-189.56945312 331.76378906 -189.13890625 330.52757812 -188.6953125 329.25390625 C-183.15627269 314.46748642 -175.60022105 300.74873523 -165 289 C-164.30519531 288.175 -163.61039063 287.35 -162.89453125 286.5 C-146.25161058 267.09841671 -124.28726707 254.59792275 -100.15545654 246.91461182 C-96.21014297 245.65666892 -92.27824558 244.35769964 -88.34375 243.06640625 C-87.16079849 242.67983856 -87.16079849 242.67983856 -85.95394897 242.28546143 C-78.39823049 239.81412789 -70.87589671 237.25779541 -63.375 234.625 C-61.70800049 234.05495239 -61.70800049 234.05495239 -60.00732422 233.47338867 C-49.27605476 229.67737765 -40.22578043 225.59279817 -35 215 C-31.72204718 206.91893575 -31.56799676 197.1030285 -33.921875 188.71484375 C-39.94094884 175.56139709 -50.79619178 165.43871184 -62.36767578 157.16796875 C-90.92861789 136.73190129 -124.1199239 103.91279647 -131.578125 68.234375 C-133.52281234 53.32510538 -132.35826083 37.88565212 -124 25 C-116.98570268 16.23212835 -107.11736639 9.9377389 -96 8 C-89.5839229 7.55637879 -83.32324661 7.8503188 -77 9 C-76.6596875 8.50371094 -76.319375 8.00742187 -75.96875 7.49609375 C-68.79330385 -2.56098103 -60.67288022 -8.63082341 -48.49609375 -11.61328125 C-30.94736158 -14.33209891 -15.00117801 -8.53932463 0 0 Z M-60.83984375 15.23046875 C-64.01193256 19.86192442 -64.01193256 19.86192442 -65.03125 25.26171875 C-64.52770087 27.59902596 -63.81908542 29.75412063 -63 32 C-62.48237247 33.70307502 -61.98331951 35.41187273 -61.5 37.125 C-61.23960937 38.04410156 -60.97921875 38.96320313 -60.7109375 39.91015625 C-59.89569542 43.45332375 -59.5108245 46.94812523 -59.125 50.5625 C-57.29311351 64.67796645 -48.92515129 73.49205075 -40 84 C-38.95695266 85.23951721 -37.91398087 86.47909799 -36.87109375 87.71875 C-31.21625281 94.40390662 -25.39089378 100.91291754 -19.4453125 107.33984375 C-17.44839207 109.51221246 -15.49171266 111.70539163 -13.5625 113.9375 C-10.54474509 117.41510328 -7.43820968 120.8071176 -4.3125 124.1875 C-3.55308105 125.00879395 -3.55308105 125.00879395 -2.77832031 125.84667969 C-0.05525647 128.78799786 2.67376965 131.72367956 5.40625 134.65625 C5.95579346 135.24768799 6.50533691 135.83912598 7.0715332 136.44848633 C8.13059079 137.58818525 9.19155995 138.7261115 10.25463867 139.86206055 C14.89438664 144.85937571 14.89438664 144.85937571 15.3125 149.375 C15 153 15 153 13.375 155.4375 C11 157 11 157 8.25 157.6875 C3.2591964 156.63175308 0.54987111 153.52313009 -3 150 C-4.01126953 149.02740234 -4.01126953 149.02740234 -5.04296875 148.03515625 C-8.27045898 144.88257875 -11.32779334 141.64106788 -14.28515625 138.234375 C-17.8724116 134.11058272 -21.60769651 130.14619579 -25.375 126.1875 C-30.4390496 120.8306734 -35.24252385 115.4019869 -39.83203125 109.6328125 C-42.25658307 106.68840182 -44.83076637 103.90638839 -47.4375 101.125 C-60.82910371 86.7351046 -73.09134961 71.27827832 -75.1484375 51.25976562 C-76.22644818 41.72835453 -78.32441055 31.33002118 -86 25 C-94.18022981 23.61352037 -99.98993762 27.59396257 -106.8125 31.6875 C-114.13364435 39.42699546 -115.49319919 48.77709271 -115.26171875 59 C-114.63521807 71.8111749 -108.00438183 81.73675881 -101 92 C-100.58411621 92.61552734 -100.16823242 93.23105469 -99.73974609 93.86523438 C-93.7235158 102.71614972 -87.18856268 111.07119631 -80 119 C-79.49549316 119.55655273 -78.99098633 120.11310547 -78.47119141 120.68652344 C-70.01748003 129.86543706 -60.63329638 137.23622499 -50.5859375 144.59765625 C-35.43798199 155.73082258 -20.52065751 170.12938258 -16 189 C-15.58073956 192.59492804 -15.52270427 196.13332642 -15.5625 199.75 C-15.57385986 201.19862427 -15.57385986 201.19862427 -15.58544922 202.67651367 C-15.88662963 215.79325039 -19.72613799 225.70875497 -28.3125 235.6875 C-35.67358242 242.02145464 -43.49340899 245.72532819 -52.5625 249.0625 C-53.79323242 249.5251123 -55.02396484 249.98772461 -56.29199219 250.46435547 C-63.86303206 253.27832644 -71.50113294 255.84165531 -79.19921875 258.28515625 C-80.07232193 258.56333694 -80.94542511 258.84151764 -81.84498596 259.12812805 C-86.13993743 260.49287968 -90.4398069 261.83617221 -94.75219727 263.14477539 C-125.26584192 272.5826976 -151.01397772 292.38239179 -166.23242188 320.76464844 C-179.93731116 347.50365027 -187.00291257 383.36003112 -178.25390625 412.625 C-172.06563093 429.28129244 -160.63462644 439.90995834 -145.02734375 447.703125 C-137.98938346 450.71809638 -132.07031049 451.29302211 -124.47984314 451.27415466 C-123.43270616 451.27939134 -122.38556917 451.28462802 -121.30670077 451.29002339 C-117.80460736 451.30500255 -114.30266033 451.30572808 -110.80053711 451.30639648 C-108.28710179 451.31401911 -105.77366879 451.32244679 -103.26023865 451.33161926 C-96.43814711 451.35355499 -89.61610616 451.3623833 -82.79398417 451.36744571 C-78.53295032 451.37070711 -74.27192545 451.37723202 -70.01089668 451.3844471 C-58.20766333 451.40400157 -46.4044383 451.42041404 -34.60118771 451.42332363 C-33.84673444 451.4235112 -33.09228118 451.42369877 -32.3149657 451.42389202 C-30.78561978 451.42425827 -29.25627385 451.42462197 -27.72692793 451.42498314 C-26.96779122 451.42516595 -26.20865452 451.42534876 -25.42651367 451.42553711 C-24.28641616 451.42580793 -24.28641616 451.42580793 -23.12328637 451.42608423 C-10.79604057 451.42962909 1.53103092 451.45667604 13.85821623 451.494035 C26.52139513 451.53210477 39.18448745 451.55148098 51.84772485 451.55178314 C58.95504396 451.55236781 66.06215475 451.56086618 73.16942024 451.58978081 C79.84996779 451.61683546 86.53003265 451.6182112 93.21063805 451.60212517 C95.66405765 451.60030459 98.11750061 451.60705591 100.57086945 451.62294388 C103.91668239 451.64329305 107.26103372 451.63291696 110.60682678 451.61473083 C111.58065766 451.6279308 112.55448854 451.64113077 113.55782944 451.65473074 C117.95237478 451.60006079 121.04709168 451.44409194 124.57535458 448.66470432 C127.18204566 446.13744064 127.18204566 446.13744064 128.1875 442.75 C127.8188107 435.37621391 123.04666914 429.16403353 118 424 C114.37863265 421.36286319 110.57973572 419.28459753 106.5625 417.3125 C104 416 104 416 103 414 C102.47301865 408.23881202 103.88017224 404.48947819 106.625 399.5625 C122.84019882 368.71117785 126.6427923 334.40965502 118.9375 300.48046875 C116.16054885 287.88225682 116.16054885 287.88225682 118 283 C120.54296875 282.01171875 120.54296875 282.01171875 124 281 C133.26618098 276.7948844 142.44683883 271.8678645 150 265 C150.76699219 264.31292969 151.53398437 263.62585938 152.32421875 262.91796875 C161.32785594 254.42032109 168.16795697 243.46151783 169.2734375 230.890625 C169.99473844 205.03476037 154.6162895 177.67108903 137.16723633 159.21142578 C135.79074994 157.79526773 134.39547864 156.39744688 133 155 C132.13761719 154.12601563 131.27523438 153.25203125 130.38671875 152.3515625 C119.20980812 141.58861152 104.18482241 132.48098243 88.96484375 129.02734375 C88.29259766 128.87241455 87.62035156 128.71748535 86.92773438 128.55786133 C85.05196059 128.14989434 83.16470367 127.79579342 81.27734375 127.4453125 C76.60967259 125.38686395 75.26164568 122.42673198 73 118 C72.60159912 117.24686523 72.20319824 116.49373047 71.79272461 115.71777344 C70.50817911 113.25931802 69.2544816 110.78641529 68 108.3125 C56.94228553 86.90704276 43.77162328 66.26035649 28 48 C26.96166016 46.79537109 26.96166016 46.79537109 25.90234375 45.56640625 C23.64242135 43.0029734 21.33657153 40.49380561 19 38 C18.52578613 37.49178711 18.05157227 36.98357422 17.56298828 36.45996094 C2.80169236 20.76930251 -16.66240759 5.48081658 -39.1875 4.625 C-47.78222457 4.9377827 -55.3619403 8.58952848 -60.83984375 15.23046875 Z " fill="#000000" transform="translate(262,28)"/>
<path d="M0 0 C4.43118719 2.13646525 7.2290203 4.37577522 9 9 C9.66541913 14.37264334 9.69575726 18.60848549 7.25 23.5 C3.2336737 27.96258478 0.33708371 29.80524302 -5.75 30.3125 C-10.30934897 30.22868844 -13.53741984 28.97168272 -17 26 C-19.8815301 22.64246493 -21.2345897 19.35925357 -21.4375 14.9375 C-20.83117953 9.48061581 -19.52682279 6.37786447 -15.4375 2.6875 C-10.48002278 -0.74459961 -5.91632795 -0.60166047 0 0 Z " fill="#000000" transform="translate(372,210)"/>
</svg>
